<svg width="119" height="111" viewBox="0 0 119 111" fill="none" xmlns="http://www.w3.org/2000/svg">
<path fillRule="evenodd" clipRule="evenodd" d="M27.3387 111C31.418 111 34.725 107.693 34.725 103.614C34.725 99.5344 31.418 96.2275 27.3387 96.2275H23.3412C18.6088 96.2275 14.7725 92.3912 14.7725 87.6588V54.9238C14.7725 52.1861 16.0807 49.6132 18.2928 48.0002L55.747 20.6898C58.7654 18.4889 62.8619 18.4971 65.8715 20.71L78.1957 29.772L64.37 39.7524C62.1386 41.3632 60.8166 43.9479 60.8166 46.7V102.431C60.8166 107.164 64.653 111 69.3854 111H113.64C118.372 111 122.209 107.164 122.209 102.431V46.7C122.209 43.9479 120.887 41.3632 118.655 39.7524L104.83 29.772L117.154 20.71C120.164 18.4971 124.26 18.4889 127.278 20.6898L164.733 48.0002C166.945 49.6132 168.253 52.1861 168.253 54.9238V87.6588C168.253 92.3912 164.417 96.2275 159.684 96.2275H153.576C149.497 96.2275 146.19 99.5344 146.19 103.614C146.19 107.693 149.497 111 153.576 111H174.457C179.189 111 183.025 107.164 183.025 102.431V46.6758C183.025 43.9372 181.716 41.3636 179.503 39.7507L127.231 1.66006C124.236 -0.5231 120.175 -0.532186 117.17 1.63754L91.5127 20.1587L65.8556 1.63754C62.85 -0.532188 58.7899 -0.523101 55.794 1.66006L3.52235 39.7507C1.30904 41.3636 0 43.9372 0 46.6758V102.431C0 107.164 3.83634 111 8.56871 111H27.3387ZM84.1579 96.2275C79.4255 96.2275 75.5891 92.3912 75.5891 87.6588V55.0615C75.5891 52.247 76.9712 49.612 79.2867 48.0121L91.5127 39.5639L102.984 47.9989C105.18 49.6136 106.477 52.1766 106.477 54.9023V87.6588C106.477 92.3912 102.641 96.2275 97.9084 96.2275H84.1579Z" fill="#2D1E57" fill-opacity="0.1"/>
</svg>
