<svg width="59" height="36" viewBox="0 0 59 36" fill="none" xmlns="http://www.w3.org/2000/svg">
<path fill-rule="evenodd" clip-rule="evenodd" d="M9.49595 35.1167C10.7637 35.1167 11.7914 34.0891 11.7914 32.8213C11.7914 31.5536 10.7637 30.5259 9.49595 30.5259H8.25367C6.78301 30.5259 5.5908 29.3337 5.5908 27.8631V17.6901C5.5908 16.8393 5.99734 16.0397 6.68478 15.5384L18.3243 7.05126C19.2623 6.36728 20.5354 6.36982 21.4707 7.05754L25.3006 9.87369L21.0041 12.9753C20.3106 13.4759 19.8998 14.2791 19.8998 15.1344V32.4539C19.8998 33.9245 21.092 35.1167 22.5627 35.1167H36.3155C37.7862 35.1167 38.9784 33.9245 38.9784 32.4539V15.1344C38.9784 14.2791 38.5676 13.4759 37.8741 12.9753L33.5776 9.87369L37.4075 7.05754C38.3428 6.36982 39.6159 6.36728 40.5539 7.05126L52.1934 15.5384C52.8809 16.0397 53.2874 16.8393 53.2874 17.6901V27.863C53.2874 29.3337 52.0952 30.5259 50.6245 30.5259H48.7264C47.4587 30.5259 46.431 31.5536 46.431 32.8213C46.431 34.0891 47.4587 35.1167 48.7264 35.1167H55.2153C56.686 35.1167 57.8782 33.9245 57.8782 32.4539V15.1269C57.8782 14.2758 57.4714 13.476 56.7836 12.9748L40.5393 1.13743C39.6083 0.458975 38.3465 0.456151 37.4125 1.13043L29.4391 6.88622L21.4657 1.13043C20.5317 0.456151 19.2699 0.458975 18.3389 1.13743L2.09463 12.9748C1.40681 13.476 1 14.2758 1 15.1269V32.4539C1 33.9245 2.19221 35.1167 3.66288 35.1167H9.49595ZM27.1535 30.5259C25.6828 30.5259 24.4906 29.3337 24.4906 27.8631V17.7329C24.4906 16.8582 24.9201 16.0393 25.6397 15.5421L29.4391 12.9167L33.0041 15.538C33.6865 16.0398 34.0895 16.8363 34.0895 17.6834V27.863C34.0895 29.3337 32.8973 30.5259 31.4266 30.5259H27.1535Z" fill="#2D1E57"/>
<path fill-rule="evenodd" clip-rule="evenodd" d="M9.49595 35.1167C10.7637 35.1167 11.7914 34.0891 11.7914 32.8213C11.7914 31.5536 10.7637 30.5259 9.49595 30.5259H8.25367C6.78301 30.5259 5.5908 29.3337 5.5908 27.8631V17.6901C5.5908 16.8393 5.99734 16.0397 6.68478 15.5384L18.3243 7.05126C19.2623 6.36728 20.5354 6.36982 21.4707 7.05754L25.3006 9.87369L21.0041 12.9753C20.3106 13.4759 19.8998 14.2791 19.8998 15.1344V32.4539C19.8998 33.9245 21.092 35.1167 22.5627 35.1167H36.3155C37.7862 35.1167 38.9784 33.9245 38.9784 32.4539V15.1344C38.9784 14.2791 38.5676 13.4759 37.8741 12.9753L33.5776 9.87369L37.4075 7.05754C38.3428 6.36982 39.6159 6.36728 40.5539 7.05126L52.1934 15.5384C52.8809 16.0397 53.2874 16.8393 53.2874 17.6901V27.863C53.2874 29.3337 52.0952 30.5259 50.6245 30.5259H48.7264C47.4587 30.5259 46.431 31.5536 46.431 32.8213C46.431 34.0891 47.4587 35.1167 48.7264 35.1167H55.2153C56.686 35.1167 57.8782 33.9245 57.8782 32.4539V15.1269C57.8782 14.2758 57.4714 13.476 56.7836 12.9748L40.5393 1.13743C39.6083 0.458975 38.3465 0.456151 37.4125 1.13043L29.4391 6.88622L21.4657 1.13043C20.5317 0.456151 19.2699 0.458975 18.3389 1.13743L2.09463 12.9748C1.40681 13.476 1 14.2758 1 15.1269V32.4539C1 33.9245 2.19221 35.1167 3.66288 35.1167H9.49595ZM27.1535 30.5259C25.6828 30.5259 24.4906 29.3337 24.4906 27.8631V17.7329C24.4906 16.8582 24.9201 16.0393 25.6397 15.5421L29.4391 12.9167L33.0041 15.538C33.6865 16.0398 34.0895 16.8363 34.0895 17.6834V27.863C34.0895 29.3337 32.8973 30.5259 31.4266 30.5259H27.1535Z" fill="black" fill-opacity="0.2"/>
<path d="M29.4391 6.88622L21.4657 1.13043C20.5317 0.456151 19.2699 0.458975 18.3389 1.13743L2.09463 12.9748C1.40681 13.476 1 14.2758 1 15.1269V32.4539C1 33.9245 2.19221 35.1167 3.66288 35.1167H9.49595C10.7637 35.1167 11.7914 34.089 11.7914 32.8213V32.8213C11.7914 31.5536 10.7637 30.5259 9.49595 30.5259H8.25367C6.78301 30.5259 5.5908 29.3337 5.5908 27.863V17.6901C5.5908 16.8393 5.99734 16.0397 6.68478 15.5384L18.3243 7.05126C19.2623 6.36728 20.5354 6.36982 21.4707 7.05754L25.3006 9.87369M29.4391 6.88622L37.4125 1.13043C38.3465 0.456151 39.6083 0.458975 40.5393 1.13743L56.7836 12.9748C57.4714 13.476 57.8782 14.2758 57.8782 15.1269V32.4539C57.8782 33.9245 56.686 35.1167 55.2153 35.1167H48.7264C47.4587 35.1167 46.431 34.089 46.431 32.8213V32.8213C46.431 31.5536 47.4587 30.5259 48.7264 30.5259H50.6245C52.0952 30.5259 53.2874 29.3337 53.2874 27.863V17.6901C53.2874 16.8393 52.8809 16.0397 52.1934 15.5384L40.5539 7.05126C39.6159 6.36728 38.3428 6.36982 37.4075 7.05754L33.5776 9.87369M29.4391 6.88622L33.5776 9.87369M25.3006 9.87369L21.0041 12.9753C20.3106 13.4759 19.8998 14.2791 19.8998 15.1344V32.4539C19.8998 33.9245 21.092 35.1167 22.5627 35.1167H36.3155C37.7862 35.1167 38.9784 33.9245 38.9784 32.4539V15.1344C38.9784 14.2791 38.5676 13.4759 37.8741 12.9753L33.5776 9.87369M25.3006 9.87369L29.4391 12.9167M29.4391 12.9167L33.0041 15.538C33.6865 16.0398 34.0895 16.8363 34.0895 17.6834V27.863C34.0895 29.3337 32.8973 30.5259 31.4266 30.5259H27.1535C25.6828 30.5259 24.4906 29.3337 24.4906 27.863V17.7329C24.4906 16.8582 24.9201 16.0393 25.6397 15.5421L29.4391 12.9167Z" stroke="#2D1E57" stroke-width="0.570909"/>
<path d="M29.4391 6.88622L21.4657 1.13043C20.5317 0.456151 19.2699 0.458975 18.3389 1.13743L2.09463 12.9748C1.40681 13.476 1 14.2758 1 15.1269V32.4539C1 33.9245 2.19221 35.1167 3.66288 35.1167H9.49595C10.7637 35.1167 11.7914 34.089 11.7914 32.8213V32.8213C11.7914 31.5536 10.7637 30.5259 9.49595 30.5259H8.25367C6.78301 30.5259 5.5908 29.3337 5.5908 27.863V17.6901C5.5908 16.8393 5.99734 16.0397 6.68478 15.5384L18.3243 7.05126C19.2623 6.36728 20.5354 6.36982 21.4707 7.05754L25.3006 9.87369M29.4391 6.88622L37.4125 1.13043C38.3465 0.456151 39.6083 0.458975 40.5393 1.13743L56.7836 12.9748C57.4714 13.476 57.8782 14.2758 57.8782 15.1269V32.4539C57.8782 33.9245 56.686 35.1167 55.2153 35.1167H48.7264C47.4587 35.1167 46.431 34.089 46.431 32.8213V32.8213C46.431 31.5536 47.4587 30.5259 48.7264 30.5259H50.6245C52.0952 30.5259 53.2874 29.3337 53.2874 27.863V17.6901C53.2874 16.8393 52.8809 16.0397 52.1934 15.5384L40.5539 7.05126C39.6159 6.36728 38.3428 6.36982 37.4075 7.05754L33.5776 9.87369M29.4391 6.88622L33.5776 9.87369M25.3006 9.87369L21.0041 12.9753C20.3106 13.4759 19.8998 14.2791 19.8998 15.1344V32.4539C19.8998 33.9245 21.092 35.1167 22.5627 35.1167H36.3155C37.7862 35.1167 38.9784 33.9245 38.9784 32.4539V15.1344C38.9784 14.2791 38.5676 13.4759 37.8741 12.9753L33.5776 9.87369M25.3006 9.87369L29.4391 12.9167M29.4391 12.9167L33.0041 15.538C33.6865 16.0398 34.0895 16.8363 34.0895 17.6834V27.863C34.0895 29.3337 32.8973 30.5259 31.4266 30.5259H27.1535C25.6828 30.5259 24.4906 29.3337 24.4906 27.863V17.7329C24.4906 16.8582 24.9201 16.0393 25.6397 15.5421L29.4391 12.9167Z" stroke="black" stroke-opacity="0.2" stroke-width="0.570909"/>
</svg>
